<svg xmlns="http://www.w3.org/2000/svg" xmlns:xlink="http://www.w3.org/1999/xlink" viewBox="0,0,256,256" width="500px" height="500px" fill-rule="nonzero"><g fill="#ffffff" fill-rule="nonzero" stroke="none" stroke-width="1" stroke-linecap="butt" stroke-linejoin="miter" stroke-miterlimit="10" stroke-dasharray="" stroke-dashoffset="0" font-family="none" font-weight="none" font-size="none" text-anchor="none" style="mix-blend-mode: normal"><g transform="scale(5.12,5.12)"><path d="M36,4h-22c-5.514,0 -10,4.486 -10,10v22c0,5.514 4.486,10 10,10h22c5.514,0 10,-4.486 10,-10v-22c0,-5.514 -4.486,-10 -10,-10zM25,35.925c-1.138,0 -2.239,-0.128 -3.299,-0.348c-1.88,1.245 -4.373,2.11 -6.701,2.523c1.171,-1.143 2.387,-2.422 3.014,-3.781c-4.188,-2.068 -7.014,-5.926 -7.014,-10.357c0,-6.606 6.268,-11.962 14,-11.962c7.732,0 14,5.356 14,11.962c0,6.606 -6.268,11.963 -14,11.963z"></path></g></g></svg>